<?xml version="1.0" encoding="UTF-8"?><svg xmlns="http://www.w3.org/2000/svg" xmlns:xlink="http://www.w3.org/1999/xlink" version="1.1" id="Layer_1" x="0px" y="0px" viewBox="0 0 29.042 24" xml:space="preserve"><g id="Linkedin_2"><path d="M8.021 8.015h-5a.5.5 0 0 0-.5.5v15a.5.5 0 0 0 .5.5h5a.5.5 0 0 0 .5-.5v-15a.5.5 0 0 0-.5-.5zm-.5 15h-4v-14h4v14z"/><path d="M5.727-.015c-1.768 0-3.206 1.456-3.206 3.246 0 1.791 1.438 3.247 3.206 3.247s3.206-1.457 3.206-3.247c0-1.79-1.438-3.246-3.206-3.246zm0 5.494c-1.216 0-2.206-1.008-2.206-2.247 0-1.238.99-2.246 2.206-2.246 1.217 0 2.206 1.008 2.206 2.246 0 1.239-.989 2.247-2.206 2.247z"/><path d="M20.521 7.909c-2.438 0-4.097.6-5 1.051v-.445a.5.5 0 0 0-.5-.5h-4a.5.5 0 0 0-.5.5v15a.5.5 0 0 0 .5.5h4a.5.5 0 0 0 .5-.5v-8.238c0-1.285 1.32-2.246 2.5-2.246s2.5.961 2.5 2.246v8.238a.5.5 0 0 0 .5.5h5a.5.5 0 0 0 .5-.5v-9.611a6.004 6.004 0 0 0-6-5.995zm5 15.106h-4v-7.738c0-1.729-1.636-3.246-3.5-3.246s-3.5 1.517-3.5 3.246v7.738h-3v-14h3v.825c0 .191.109.364.281.448a.496.496 0 0 0 .527-.055c.017-.013 1.745-1.324 5.191-1.324 2.757 0 5 2.24 5 4.994l.001 9.112z"/></g><metadata><rdf:RDF xmlns:rdf="http://www.w3.org/1999/02/22-rdf-syntax-ns#" xmlns:rdfs="http://www.w3.org/2000/01/rdf-schema#" xmlns:dc="http://purl.org/dc/elements/1.1/"><rdf:Description about="https://iconscout.com/legal#licenses" dc:title="linkedin" dc:description="linkedin" dc:publisher="Iconscout" dc:date="2017-12-15" dc:format="image/svg+xml" dc:language="en"><dc:creator><rdf:Bag><rdf:li>Icons Mind</rdf:li></rdf:Bag></dc:creator></rdf:Description></rdf:RDF></metadata></svg>